<?xml version="1.0" standalone="no"?>
<!DOCTYPE svg PUBLIC "-//W3C//DTD SVG 20010904//EN"
 "http://www.w3.org/TR/2001/REC-SVG-20010904/DTD/svg10.dtd">
<svg version="1.0" xmlns="http://www.w3.org/2000/svg"
 width="700.000000pt" height="700.000000pt" viewBox="0 0 700.000000 700.000000"
 preserveAspectRatio="xMidYMid meet">
<metadata>
Created by potrace 1.14, written by Peter Selinger 2001-2017
</metadata>
<g transform="translate(0.000000,700.000000) scale(0.100000,-0.100000)"
fill="#000000" stroke="none">
<path d="M3275 6994 c-750 -61 -1396 -313 -1970 -770 -141 -112 -415 -387
-529 -529 -331 -413 -578 -924 -690 -1427 -233 -1042 18 -2122 690 -2963 113
-142 388 -417 529 -529 662 -527 1471 -800 2295 -773 529 18 1000 136 1460
366 978 490 1676 1412 1879 2481 42 225 55 375 55 645 1 330 -23 540 -94 831
-117 483 -358 971 -676 1369 -113 141 -388 416 -529 529 -510 408 -1103 661
-1749 747 -146 19 -546 33 -671 23z m601 -429 c784 -99 1488 -483 1992 -1085
384 -459 615 -991 698 -1605 24 -180 24 -570 0 -750 -67 -495 -227 -928 -491
-1325 -426 -642 -1076 -1107 -1805 -1290 -294 -73 -461 -94 -770 -94 -261 0
-383 12 -615 59 -1129 228 -2050 1084 -2360 2195 -77 277 -109 515 -109 825 0
243 8 345 45 555 170 955 807 1797 1683 2224 367 179 708 270 1166 310 92 8
449 -4 566 -19z"/>
<path d="M1765 4301 c-134 -62 -155 -238 -41 -339 44 -39 91 -52 183 -52 96 0
278 -32 391 -69 215 -71 396 -184 568 -355 265 -266 399 -560 424 -936 9 -140
22 -180 71 -227 43 -40 77 -53 140 -53 63 0 105 18 148 63 50 53 60 106 50
265 -52 794 -619 1475 -1389 1667 -221 55 -468 72 -545 36z"/>
<path d="M4900 4305 c-406 -56 -779 -244 -1068 -538 l-74 -74 43 -69 c44 -73
112 -208 143 -284 l18 -45 31 40 c162 201 330 338 542 440 162 78 397 135 556
135 95 0 160 22 202 69 92 102 67 255 -52 318 -38 20 -58 23 -145 22 -56 -1
-144 -7 -196 -14z"/>
</g>
</svg>
